<?xml version="1.0" encoding="UTF-8" standalone="no"?>
<svg width="190px" height="86px" viewBox="0 0 190 86" version="1.1" xmlns="http://www.w3.org/2000/svg" xmlns:xlink="http://www.w3.org/1999/xlink">
    <!-- Generator: Sketch 3.6.1 (26313) - http://www.bohemiancoding.com/sketch -->
    <title>Group</title>
    <desc>Created with Sketch.</desc>
    <defs></defs>
    <g id="Page-1" stroke="none" stroke-width="1" fill="none" fill-rule="evenodd">
        <g id="Group" transform="translate(-5.000000, -28.000000)">
            <g id="logo_new" transform="translate(102.050722, 59.236801) rotate(9.500000) translate(-102.050722, -59.236801) translate(6.550722, 15.236801)">
                <path d="M183.833711,78.1499664 C182.659169,84.4515918 176.306483,88.6590593 169.645715,87.5482572 C169.283524,87.4880163 168.9298,87.4103646 168.581229,87.3219183 L32.3443688,64.7635826 L35.0917149,50.0229954 C43.3591506,49.5278353 50.5068883,43.7565395 52.0093892,35.6971308 C53.7710181,26.2452149 47.0992074,17.2299592 37.1069506,15.5637561 C27.1154301,13.8965084 17.5869536,20.2096249 15.8253247,29.6608442 C14.3161983,37.7564673 18.9952261,45.5251175 26.6450243,48.6374526 L23.9462648,63.1168795 C7.9568872,58.4497697 -2.23302828,43.1412457 0.748048352,27.1463923 C3.97831487,9.81718352 21.4473724,-1.75535444 39.7655896,1.30057001 C40.054164,1.34897173 40.3416341,1.40015916 40.627632,1.45482873 L180.420581,24.7740116 C187.03902,25.929385 191.450454,31.9169216 190.280697,38.1955649 C190.204505,38.6036715 190.105491,39.0023763 189.98697,39.3923758 L183.990513,76.9301734 C183.96033,77.335146 183.909535,77.742208 183.833711,78.1499664 L183.833711,78.1499664 Z" id="path24" fill="#EC0972" transform="translate(95.349715, 44.268638) scale(1, -1) translate(-95.349715, -44.268638) "></path>
                <path d="M66.0917464,50.2518566 C63.0977869,51.0443913 61.8297527,51.6178995 61.5389699,53.240924 C61.2584932,54.7598327 62.3321814,55.8929205 64.5921901,56.2568039 C66.0177624,56.489759 67.7977953,56.3863394 69.757451,55.9270454 L69.3050812,60.2901645 C67.2802754,60.4921286 65.4457667,60.4771554 63.694812,60.1923165 C58.1143573,59.2918355 55.3699559,56.0074828 56.1720013,51.5583549 C56.8371211,47.8961902 59.0938171,46.8393613 62.6962121,45.7961127 C66.2684246,44.7417212 67.8990172,44.433552 68.2623117,42.4020726 C68.5803325,40.6784142 67.4624748,39.3607731 65.0979315,38.9773897 C63.2740971,38.6800151 61.2872034,38.889988 59.074677,39.4868265 L59.4151506,35.1062967 C61.8301208,34.8252882 64.0187221,34.78594 66.057883,35.1216181 C71.7436085,36.0429919 74.4861696,39.5394068 73.674186,44.0257936 C72.9369226,48.1312345 70.4343494,49.0710636 66.0917464,50.2518566" id="path28" fill="#FFFFFF" transform="translate(64.924571, 47.654433) scale(1, -1) translate(-64.924571, -47.654433) "></path>
                <path d="M115.535657,46.3187672 L109.325418,57.9174212 L103.881521,57.0092796 L113.851693,39.6992226 L113.740533,38.8607237 C113.552813,37.2021813 112.728314,36.3567181 111.126064,36.0962542 C110.828287,36.0513346 110.347944,36.0412364 109.65669,36.1049595 L110.003421,32.1509917 C111.188269,32.0221526 112.226622,32.0862239 113.242522,32.2495362 C117.617516,32.9623299 118.560904,35.4231569 119.210932,39.927999 L122.062445,60.0422219 L116.559655,59.1239821 L115.535657,46.3187672 L115.535657,46.3187672 L115.535657,46.3187672 Z" id="path32" fill="#FFFFFF" transform="translate(112.971983, 46.062340) scale(1, -1) translate(-112.971983, -46.062340) "></path>
                <path d="M123.655272,43.8905627 L130.82031,45.0856325 L125.245744,34.533361 L126.130608,29.7889478 L139.450304,32.0109002 L138.694637,36.0672429 L131.266054,34.8279499 L136.922701,45.5731319 L136.065444,50.1726882 L124.359409,48.2199051 L123.655272,43.8905627 L123.655272,43.8905627 L123.655272,43.8905627 Z" id="path36" fill="#FFFFFF" transform="translate(131.552788, 39.980818) scale(1, -1) translate(-131.552788, -39.980818) "></path>
                <path d="M143.806158,47.5332267 L138.303368,46.6153351 L141.686019,28.4657346 L147.189177,29.3839744 L143.806158,47.5332267 L143.806158,47.5332267 L143.806158,47.5332267 Z" id="path40" fill="#FFFFFF" transform="translate(142.746273, 37.999481) scale(1, -1) translate(-142.746273, -37.999481) "></path>
                <path d="M150.347889,46.2366529 L144.851357,45.3194577 L149.458977,20.5994107 L154.95551,21.5166059 L150.347889,46.2366529 L150.347889,46.2366529 L150.347889,46.2366529 Z" id="path44" fill="#FFFFFF" transform="translate(149.903434, 33.418032) scale(1, -1) translate(-149.903434, -33.418032) "></path>
                <path d="M158.217909,44.9236425 L152.721377,44.0064473 L157.328997,19.2867485 L162.82553,20.2039436 L158.217909,44.9236425 L158.217909,44.9236425 L158.217909,44.9236425 Z" id="path48" fill="#FFFFFF" transform="translate(157.773454, 32.105195) scale(1, -1) translate(-157.773454, -32.105195) "></path>
                <path d="M87.1877498,38.5550643 C86.5925651,38.3196718 86.101915,38.1549667 85.6837766,38.0849757 C83.7833816,37.7778511 83.3788621,38.7758319 82.9839127,40.9483379 L81.5999335,48.3722564 L85.2461299,48.980586 L84.562238,52.7305006 L80.9016865,52.1197335 L79.932901,57.317173 L74.7286236,54.807596 L75.401105,51.2021901 L72.3419955,50.6917087 L73.0402425,46.9445798 L76.099352,47.454713 L77.5363348,39.7463038 C78.323657,35.40164 79.4492444,33.0964646 84.5994141,33.9300884 C85.6274604,34.0986239 86.7324353,34.4047039 87.8848925,34.8152479 L87.1877498,38.5550643 L87.1877498,38.5550643 L87.1877498,38.5550643 Z" id="path52" fill="#FFFFFF" transform="translate(80.113444, 45.539272) scale(1, -1) translate(-80.113444, -45.539272) "></path>
                <path d="M143.003155,25.3759445 C143.270013,23.9465268 142.260371,22.5839661 140.749772,22.3318593 C139.238805,22.0801007 137.798878,23.0338584 137.532388,24.4632761 C137.265899,25.8919974 138.274437,27.2549062 139.785404,27.5070131 C141.296002,27.7591199 142.736666,26.805014 143.003155,25.3759445" id="path56" fill="#FFFFFF" transform="translate(140.267807, 24.919481) scale(1, -1) translate(-140.267807, -24.919481) "></path>
                <path d="M96.6585114,40.8357058 C95.1320853,40.5832508 94.0650225,41.0724912 93.8014775,42.5558821 C93.4584274,44.4167367 94.7687907,45.0880929 97.3954067,45.5156995 C97.7977177,45.5769851 98.377075,45.6737886 99.0421948,45.7100028 L99.1805927,44.9679592 C99.6624089,43.1468009 98.8802398,41.1940178 96.6585114,40.8357058 L96.6585114,40.8357058 L96.6585114,40.8357058 L96.6585114,40.8357058 Z M106.104538,38.5190393 L105.640022,41.0073752 C105.561252,41.3862318 105.488373,41.7657849 105.41991,42.1481237 L105.083117,43.9985319 L103.985872,49.88439 C102.907767,54.6176604 100.829957,56.4217562 95.0408015,55.4847128 C93.0340316,55.1636597 90.9212547,54.3909732 88.7400151,53.1885909 L89.4080795,49.6051225 C90.6209018,50.4498893 92.8764935,51.3211202 94.3852518,51.6439144 C96.7350719,52.1460388 97.9953764,51.2768971 98.3395309,49.3784354 L98.4344954,48.8595968 L96.7733522,48.592865 C90.9422353,47.649902 88.2151335,44.8972718 88.9244229,40.9652413 C89.5266011,37.6516387 92.143279,35.8426679 95.3875325,36.3667297 C97.6504859,36.7372292 99.029312,37.6095048 100.160421,39.645511 L100.543223,37.5913977 L106.104538,38.5190393 L106.104538,38.5190393 L106.104538,38.5190393 Z" id="path60" fill="#FFFFFF" transform="translate(97.422277, 46.000628) scale(1, -1) translate(-97.422277, -46.000628) "></path>
                <path d="M171.685316,28.3203602 C170.159994,28.0682534 169.092563,28.5574938 168.829018,30.0408846 C168.485968,31.9017393 169.797068,32.5730955 172.422948,33.0007021 C172.825627,33.0616395 173.404248,33.1584429 174.070472,33.1950054 L174.20887,32.4526135 C174.68995,30.6311071 173.908517,28.6786722 171.685316,28.3203602 L171.685316,28.3203602 L171.685316,28.3203602 L171.685316,28.3203602 Z M181.132079,26.0033454 L180.668299,28.4923778 C180.588425,28.8708862 180.515914,29.2507875 180.447451,29.6331263 L180.11029,31.4831863 L179.013781,37.3693926 C177.934939,42.1023148 175.858234,43.9067588 170.067974,42.9693672 C168.061572,42.6486623 165.949164,41.8756276 163.767188,40.6732453 L164.434884,37.0901251 C165.647706,37.9348918 167.904034,38.8057746 169.413161,39.1285688 C171.762245,39.6310413 173.022549,38.7622479 173.367072,36.8634379 L173.462036,36.3442511 L171.801261,36.0775193 C165.969408,35.1349045 163.242306,32.3819261 163.951228,28.4498957 C164.55451,25.136293 167.17082,23.3273223 170.416178,23.8513841 C172.678027,24.2222318 174.056853,25.0941592 175.187961,27.1301653 L175.571132,25.076052 L181.132079,26.0033454 L181.132079,26.0033454 L181.132079,26.0033454 Z" id="path64" fill="#FFFFFF" transform="translate(172.449633, 33.485344) scale(1, -1) translate(-172.449633, -33.485344) "></path>
            </g>
            <text id="Yaadhum-Oorey.-Yaava" font-family="OpenSans, Open Sans, sans-serif" font-size="11" font-weight="normal" fill="#fff">
                <tspan x="20" y="111">Yaadhum Oorey. Yaavarum Kaelir.</tspan>
            </text>
        </g>
    </g>
</svg>