<?xml version="1.0" encoding="UTF-8" standalone="no"?>
<svg width="30px" height="24px" viewBox="0 0 30 24" version="1.1" xmlns="http://www.w3.org/2000/svg" xmlns:xlink="http://www.w3.org/1999/xlink">
    <!-- Generator: Sketch 3.8.3 (29802) - http://www.bohemiancoding.com/sketch -->
    <title>e934</title>
    <desc>Created with Sketch.</desc>
    <defs></defs>
    <g id="Page-1" stroke="none" stroke-width="1" fill="none" fill-rule="evenodd">
        <g id="e934" fill="#000000">
            <path d="M8.24707,23.244141 C8.149414,23.244141 8.054199,23.227051 7.961426,23.192871 C7.868652,23.158691 7.788086,23.102539 7.719727,23.024414 L0.219727,15.524414 C0.073242,15.37793 0,15.202148 0,14.99707 C0,14.791992 0.073242,14.616211 0.219727,14.469727 C0.366211,14.323242 0.541992,14.25 0.74707,14.25 C0.952148,14.25 1.12793,14.323242 1.274414,14.469727 L8.24707,21.442383 L28.725586,0.963867 C28.87207,0.817383 29.047852,0.744141 29.25293,0.744141 C29.458008,0.744141 29.633789,0.817383 29.780273,0.963867 C29.926758,1.110352 30,1.288574 30,1.498535 C30,1.708496 29.926758,1.886719 29.780273,2.033203 L8.774414,23.024414 C8.706055,23.102539 8.625488,23.158691 8.532715,23.192871 C8.439941,23.227051 8.344727,23.244141 8.24707,23.244141 L8.24707,23.244141 Z" id="Shape"></path>
        </g>
    </g>
</svg>